<?xml version="1.0" encoding="UTF-8"?>
<!DOCTYPE svg PUBLIC "-//W3C//DTD SVG 1.1//EN" "http://www.w3.org/Graphics/SVG/1.1/DTD/svg11.dtd">
<!-- Creator: CorelDRAW 2020 (64-Bit) -->
<svg xmlns="http://www.w3.org/2000/svg" xml:space="preserve" width="40.6632mm" height="48.5997mm" version="1.1" style="shape-rendering:geometricPrecision; text-rendering:geometricPrecision; image-rendering:optimizeQuality; fill-rule:evenodd; clip-rule:evenodd"
viewBox="0 0 1002.52 1198.19"
 xmlns:xlink="http://www.w3.org/1999/xlink"
 xmlns:xodm="http://www.corel.com/coreldraw/odm/2003">
 <defs>
  <style type="text/css">
   <![CDATA[
    .fil0 {fill:#323232}
   ]]>
  </style>
 </defs>
 <g id="Capa_x0020_1">
  <metadata id="CorelCorpID_0Corel-Layer"/>
  <path class="fil0" d="M411.23 126.43c-117.88,59.45 -88.2,18.34 -195.96,123.53 -149.21,145.65 -65.9,402.62 -94.65,556.22 -14.44,77.15 -150.96,125.18 -114.42,200.26 48.1,42.53 260.63,13.52 336.51,20.02 11.67,222.07 294.59,236.46 313.74,-2.04 86.4,1.25 285.73,19.38 339.07,-19.35 40.01,-58.87 -104.17,-125.24 -117.25,-199.94 -31.24,-178.53 58.97,-377.17 -92.38,-551.95 -69.87,-80.69 -87.39,-71.76 -196,-125.2 -9.47,-71.06 -12.47,-124.99 -88.13,-127.9 -73.15,-2.82 -90.53,58.04 -90.55,126.33z"/>
 </g>
</svg>
