<?xml version="1.0" encoding="UTF-8"?>
<!DOCTYPE svg PUBLIC "-//W3C//DTD SVG 1.1//EN" "http://www.w3.org/Graphics/SVG/1.1/DTD/svg11.dtd">
<!-- Creator: CorelDRAW 2020 (64-Bit) -->
<svg xmlns="http://www.w3.org/2000/svg" xml:space="preserve" width="172.888mm" height="87.6764mm" version="1.1" style="shape-rendering:geometricPrecision; text-rendering:geometricPrecision; image-rendering:optimizeQuality; fill-rule:evenodd; clip-rule:evenodd"
viewBox="0 0 3410.77 1729.7"
 xmlns:xlink="http://www.w3.org/1999/xlink"
 xmlns:xodm="http://www.corel.com/coreldraw/odm/2003">
 <defs>
  <style type="text/css">
   <![CDATA[
    .fil0 {fill:#323232}
   ]]>
  </style>
 </defs>
 <g id="Capa_x0020_1">
  <metadata id="CorelCorpID_0Corel-Layer"/>
  <path class="fil0" d="M1705.31 1209.53l-264 -226.65c-66.91,-65.7 -239.1,-199.04 -317.11,-274.23l-533.33 -462.08c-59.61,-49.46 -219.6,-198.67 -270.72,-223.5 -153.53,-74.56 -344.27,46.93 -317.63,234.29 15.72,110.56 96.29,147.93 174.72,222.1 31.14,29.44 70.66,56.87 104.36,90.33 49.05,48.7 210.11,175.8 265.13,229.02l533.05 462c11.52,9.43 15.92,11.2 27.15,21.95 14.18,13.57 10.23,12.08 24.73,23.69 123.41,98.72 312.28,278.7 426.11,367.53 40.9,31.92 79.17,55.27 147.59,55.7 68.93,0.43 129.31,-34.99 171.22,-73.76 183.89,-170.05 416.91,-359.91 610.9,-530.61l477.61 -413.29c74.69,-69.38 204.48,-172.31 267.66,-233.45 57.42,-55.57 158.98,-106.24 175.54,-221.23 25.94,-180.21 -156.02,-309.44 -313.47,-236.76 -59.75,27.58 -118.87,97.24 -166.9,132.3l-341.96 298.31c-11.34,10.28 -19.57,14.24 -31.5,24.26l-237.17 208.09c-100.14,85.17 -327.74,275.36 -399.58,345.45 -30.67,29.92 -69.81,57.36 -104.38,90.3l-108.03 90.2z"/>
 </g>
</svg>
