<?xml version="1.0" encoding="UTF-8"?>
<!DOCTYPE svg PUBLIC "-//W3C//DTD SVG 1.1//EN" "http://www.w3.org/Graphics/SVG/1.1/DTD/svg11.dtd">
<!-- Creator: CorelDRAW 2020 (64-Bit) -->
<svg xmlns="http://www.w3.org/2000/svg" xml:space="preserve" width="147.534mm" height="138.75mm" version="1.1" style="shape-rendering:geometricPrecision; text-rendering:geometricPrecision; image-rendering:optimizeQuality; fill-rule:evenodd; clip-rule:evenodd"
viewBox="0 0 1522.32 1431.68"
 xmlns:xlink="http://www.w3.org/1999/xlink"
 xmlns:xodm="http://www.corel.com/coreldraw/odm/2003">
 <defs>
  <style type="text/css">
   <![CDATA[
    .fil0 {fill:#323232}
    .fil1 {fill:white}
   ]]>
  </style>
 </defs>
 <g id="Capa_x0020_1">
  <metadata id="CorelCorpID_0Corel-Layer"/>
  <path class="fil0" d="M-0 667.26c0,117.42 10.96,175.16 54.3,280.81 46.67,113.77 134.35,209.05 229.37,280.48 46.18,34.72 70.2,34.86 40.06,75.1 -10.63,14.2 -20.14,27.27 -30.74,42.17 -11.45,16.11 -56.29,73.16 -59.65,85.85 20.91,-4.5 48.94,-14.88 69.95,-20.85 40.48,-11.5 196.82,-62.49 224.9,-62.49l104.6 22.75c105.48,15.96 196.05,13.76 303.43,-8.02 137.1,-27.81 250.92,-90.22 353.35,-174.64 125.44,-103.39 232.75,-296.66 232.75,-473.84 0,-140.6 -15.45,-204.57 -72.99,-320.33 -18.23,-36.68 -42.46,-73.75 -66.78,-104.46 -84.68,-106.93 -173.2,-166.48 -296.19,-224.57 -184.55,-87.16 -458.47,-85.98 -645.47,-2.33 -121.24,54.23 -219.65,123.83 -299.23,225.19 -26.3,33.5 -48.78,66.14 -68.67,106.17 -19.96,40.17 -37.61,78.44 -50.16,124.49 -12.94,47.47 -22.82,98.23 -22.82,148.52z"/>
  <g id="_2260010499696">
   <path class="fil1" d="M741.81 651.53c-34.34,10.62 -54.24,41.99 -46.59,78.13 19.42,91.81 154.51,55.71 131.82,-29 -8.4,-31.38 -40,-63.11 -85.23,-49.13z"/>
   <path class="fil1" d="M426.73 711.39c0,97.52 132.75,92.97 134.82,7.27 2.31,-95.31 -134.82,-86.4 -134.82,-7.27z"/>
   <path class="fil1" d="M961.3 715.03c0.39,91.89 134.28,93.38 134.28,-3.64 0,-78.42 -134.67,-87.71 -134.28,3.64z"/>
  </g>
 </g>
</svg>
