<?xml version="1.0" encoding="UTF-8"?>
<!DOCTYPE svg PUBLIC "-//W3C//DTD SVG 1.1//EN" "http://www.w3.org/Graphics/SVG/1.1/DTD/svg11.dtd">
<!-- Creator: CorelDRAW 2020 (64-Bit) -->
<svg xmlns="http://www.w3.org/2000/svg" xml:space="preserve" width="171.892mm" height="171.837mm" version="1.1" style="shape-rendering:geometricPrecision; text-rendering:geometricPrecision; image-rendering:optimizeQuality; fill-rule:evenodd; clip-rule:evenodd"
viewBox="0 0 2407.45 2406.68"
 xmlns:xlink="http://www.w3.org/1999/xlink"
 xmlns:xodm="http://www.corel.com/coreldraw/odm/2003">
 <defs>
  <style type="text/css">
   <![CDATA[
    .fil0 {fill:#545454}
   ]]>
  </style>
 </defs>
 <g id="Capa_x0020_1">
  <metadata id="CorelCorpID_0Corel-Layer"/>
  <path class="fil0" d="M1334.11 1496.47c38.33,42.1 81.68,82.43 122.4,123.44l743.62 743.57c18.16,18.22 41.48,40.82 81.75,43.04 39.63,2.18 70.14,-17.14 88.8,-36.16 9.9,-10.09 17.98,-19.38 25.54,-35.58 25.61,-54.88 4.08,-98.72 -31.12,-134l-805.95 -805.73c-20.79,-20.72 -40.82,-42.41 -62.36,-61.33l39.36 -58.22c194.28,-300.09 164.39,-696.99 -59.74,-970.18 -24.77,-30.19 -69.14,-79.01 -98.18,-101.1 -45.83,-34.85 -47.21,-42.79 -113.75,-83.22 -140.95,-85.65 -298.38,-126.32 -471.24,-120.41 -116.7,3.99 -223.58,36.62 -316.69,79.48 -59.45,27.36 -105.08,57.72 -152.61,94.13 -9.6,7.36 -18.17,15.08 -27.64,22.19 -6.77,5.09 -6.95,6.28 -13.02,11.84l-25.82 24.01c-23.11,23.81 -51.4,48.95 -71.12,76.08 -42.81,58.89 -67.73,84.64 -105.25,166.42 -44.36,96.69 -74.05,195.31 -80.03,315.14 -10.43,209.01 55.78,402.64 180.75,560.97l109.24 112.68c114.91,98.84 264.81,172.66 424.66,193.23 128.43,16.52 236.26,7.75 355.17,-26.98 52,-15.18 94.57,-35.1 140.05,-56.93 32.74,-15.71 64.14,-36.33 93.46,-55.94 9.15,-6.12 20.71,-16.87 29.71,-20.4zm-541.7 -1287.12c-133.97,5.89 -266.19,63.76 -362.9,145.18 -3.88,3.27 -5.28,5.4 -9.3,8.74 -4.29,3.57 -7.11,5.38 -11.47,8.98l-56.88 60.79c-43.87,57.06 -74.23,100.32 -101.36,172.46 -32.06,85.25 -46.63,169.46 -40.89,268.43 19.19,330.85 307.65,604.42 664.4,581.6 331.63,-21.21 604.49,-306.43 581.88,-663.29 -9.62,-151.82 -67.56,-276.6 -163.33,-382.36l-48.6 -48.72c-131.34,-108.91 -270.71,-159.76 -451.55,-151.82z"/>
 </g>
</svg>
