<?xml version="1.0" encoding="UTF-8"?>
<!DOCTYPE svg PUBLIC "-//W3C//DTD SVG 1.1//EN" "http://www.w3.org/Graphics/SVG/1.1/DTD/svg11.dtd">
<!-- Creator: CorelDRAW 2020 (64-Bit) -->
<svg xmlns="http://www.w3.org/2000/svg" xml:space="preserve" width="159.544mm" height="159.597mm" version="1.1" style="shape-rendering:geometricPrecision; text-rendering:geometricPrecision; image-rendering:optimizeQuality; fill-rule:evenodd; clip-rule:evenodd"
viewBox="0 0 10486.64 10490.12"
 xmlns:xlink="http://www.w3.org/1999/xlink"
 xmlns:xodm="http://www.corel.com/coreldraw/odm/2003">
 <defs>
  <style type="text/css">
   <![CDATA[
    .fil0 {fill:#BD081C}
   ]]>
  </style>
 </defs>
 <g id="Capa_x0020_1">
  <metadata id="CorelCorpID_0Corel-Layer"/>
  <path class="fil0" d="M3323.82 10118.77c-44.26,-642.3 -83.61,-1036.9 59.16,-1660.02l518.3 -2195.9c35.73,-144 72.73,-198.25 25.31,-334.23 -210.86,-604.68 -176.26,-1282.46 282.83,-1745.58 365.06,-368.28 993.32,-288.48 1159.54,208.41 206.68,617.84 -404.3,1736.61 -409.28,2237.79 -10.63,1070.38 1839.53,1152.45 2323.3,-670.87 132.55,-499.58 184.51,-1108.34 37.95,-1617.15 -578.23,-2007.47 -3567.12,-1957.1 -4310.94,-58.92 -488.8,1247.39 251.23,2021.23 263.87,2140.16 11.55,108.7 -139.43,663.06 -184.69,739.32 -316.76,17.25 -683.08,-458.27 -813.22,-674.24 -447.32,-742.31 -487.15,-1615.83 -213.34,-2433.84 141.74,-423.45 320.76,-674.47 541.83,-965.1 70.5,-92.68 278.24,-302.27 370.94,-371.52 493.98,-368.97 851.23,-567.47 1524.81,-703.2 2811.34,-566.5 4881.17,1758.04 3801.02,4452.5 -272.27,679.17 -799.39,1280.93 -1436.19,1554.9 -356.32,153.3 -816.03,263.92 -1259.39,188.25 -418.09,-71.35 -673.59,-227.52 -911.86,-523.86 -27.09,-33.7 -14.64,-18.71 -35.01,-40.17 -55.94,235.56 -121.37,466.45 -182.87,700.94 -60.26,229.81 -115.77,489.71 -192.3,710.8 -221.46,639.82 -432.31,831.34 -585.66,1189.36 145.77,98.99 822.42,197.76 1048.58,219.19 1316.6,124.73 2506.21,-235.97 3541.27,-952.39 887.25,-614.13 1574.76,-1575.87 1927.97,-2616.54 910.99,-2684 -553.78,-5690.68 -3223.39,-6609.89 -1403.87,-483.38 -3076.3,-345.79 -4257.61,335 -384.64,221.66 -803.87,502.67 -1107.68,816.19 -267.5,276.04 -375.88,360.32 -612.31,686.65 -286.4,395.29 -508.31,791.31 -686.11,1261.54 -526.87,1393.4 -403.3,3040.11 249.6,4265.89 158.79,298.11 551.27,900.32 800.88,1146.97 63.67,62.91 108.7,100.77 166.35,157.75 407.71,403 1101.42,972.63 1778.36,1161.81z"/>
 </g>
</svg>
