<?xml version="1.0" encoding="UTF-8"?>
<!DOCTYPE svg PUBLIC "-//W3C//DTD SVG 1.1//EN" "http://www.w3.org/Graphics/SVG/1.1/DTD/svg11.dtd">
<!-- Creator: CorelDRAW 2020 (64-Bit) -->
<svg xmlns="http://www.w3.org/2000/svg" xml:space="preserve" width="186.267mm" height="186.267mm" version="1.1" style="shape-rendering:geometricPrecision; text-rendering:geometricPrecision; image-rendering:optimizeQuality; fill-rule:evenodd; clip-rule:evenodd"
viewBox="0 0 6763.69 6763.69"
 xmlns:xlink="http://www.w3.org/1999/xlink"
 xmlns:xodm="http://www.corel.com/coreldraw/odm/2003">
 <defs>
  <style type="text/css">
   <![CDATA[
    .fil0 {fill:#E6E7E8}
    .fil1 {fill:#373435}
   ]]>
  </style>
 </defs>
 <g id="Capa_x0020_1">
  <metadata id="CorelCorpID_0Corel-Layer"/>
  <g id="_2294831536304">
   <circle class="fil0" cx="3381.84" cy="3381.84" r="3381.84"/>
   <g>
    <path class="fil1" d="M1346.35 3438.46l-13.86 8.53c-127.64,131.72 -98.9,189.73 -98.86,408.98 0.03,170.57 0.03,341.15 -0.02,511.73 -0.07,270.46 -52.21,504.27 151.68,604.48 69.28,34.06 151.57,26.18 233.7,26.2l3552.42 -0c88.54,0.03 148.02,7.98 220.64,-31.86 52.82,-28.97 97.13,-78.14 120.97,-138.35 37.14,-93.8 18.22,-830.2 18.58,-994.45 0.44,-198.33 16.36,-294.65 -112.92,-395.35 -121.49,-94.64 -295.48,-43.17 -366.12,49.8 -18.77,27.25 -24.62,36.63 -38.18,67.87 -53.49,151.04 -4.2,698.47 -21.93,906.27l-3221.6 -2.22c-6.58,-254.13 2.72,-530.62 -0.15,-789.57 -0.4,-36.15 -10.48,-72.18 -8.94,-102.41 -7.49,-8.46 -1.84,-0.81 -10.16,-14.54 -37.44,-61.78 -74.93,-129.96 -168.69,-152.62 -86.78,-26.47 -176.53,-9.3 -236.58,37.5z"/>
    <path class="fil1" d="M3282.69 1776.44c-88.35,16.82 -266.12,170.32 -326.27,214.89l-612.16 460.96c-70.29,52.4 -252.55,179.07 -293.76,238.68 -55.93,122.64 10.42,228.5 134.73,271.33 179.83,61.97 297.62,-39.1 370.33,-93.67 31.73,-23.81 523.55,-400.84 546.04,-407.78 -7.09,134.24 -0.81,277.8 -0.8,413.05l-0 1034.28c-0.02,79.76 -9.83,120.61 36.9,185.96 102.92,129.68 319.68,123.29 427.31,38.87 15.85,-12.43 5.21,-7.32 24.1,-17.57 5.94,-26.01 26.13,-29.45 40.41,-73.77 17.18,-53.33 8.65,-671.01 8.1,-737.29 -2.34,-281.7 2.29,-563.73 -0.27,-845.46 28.37,10.03 387.79,286.85 460.5,342.25 30.1,22.93 122.57,98.37 148.23,109.03l7.16 7.47c0.99,0.98 2.43,2.51 3.53,3.56l14.22 12.24c10.48,7.37 15.73,8.8 32.55,16.28 71.24,28.2 140.23,42.31 230.41,18.17 58.09,-15.55 138.01,-62.38 148.38,-103.77 15.63,-13.13 18.09,-21.54 23.79,-40.99 8.15,-44.1 9.76,-74.02 -9.94,-115.45 -18.58,-39.06 -41.13,-56.46 -73.08,-78.92 -147.84,-103.92 -380.2,-288.35 -533.29,-402.97 -120.85,-90.49 -235.16,-177.89 -355.99,-268.36 -61.34,-45.93 -117.03,-87.96 -178.04,-134.17 -59.99,-45.44 -163.93,-77.1 -273.1,-46.86z"/>
   </g>
  </g>
 </g>
</svg>
