<?xml version="1.0" encoding="UTF-8"?>
<!DOCTYPE svg PUBLIC "-//W3C//DTD SVG 1.1//EN" "http://www.w3.org/Graphics/SVG/1.1/DTD/svg11.dtd">
<!-- Creator: CorelDRAW 2020 (64-Bit) -->
<svg xmlns="http://www.w3.org/2000/svg" xml:space="preserve" width="204.946mm" height="153.864mm" version="1.1" style="shape-rendering:geometricPrecision; text-rendering:geometricPrecision; image-rendering:optimizeQuality; fill-rule:evenodd; clip-rule:evenodd"
viewBox="0 0 17781.99 13349.86"
 xmlns:xlink="http://www.w3.org/1999/xlink"
 xmlns:xodm="http://www.corel.com/coreldraw/odm/2003">
 <defs>
  <style type="text/css">
   <![CDATA[
    .fil0 {fill:#606062}
   ]]>
  </style>
 </defs>
 <g id="Capa_x0020_1">
  <metadata id="CorelCorpID_0Corel-Layer"/>
  <g id="_2294823584176">
   <path class="fil0" d="M490.14 6908.59l-57.19 35.23c-526.79,543.63 -408.2,783.02 -408.03,1687.92 0.13,704 0.12,1407.99 -0.07,2111.99 -0.29,1116.27 -215.46,2081.2 626,2494.8 285.92,140.55 625.54,108.04 964.5,108.13l14661.47 -0.01c365.42,0.13 610.91,32.94 910.62,-131.49 217.98,-119.59 400.89,-322.49 499.28,-570.99 153.27,-387.15 75.2,-3426.41 76.7,-4104.26 1.81,-818.56 67.52,-1216.05 -466.03,-1631.69 -501.42,-390.61 -1219.51,-178.16 -1511.04,205.53 -77.48,112.45 -101.63,151.18 -157.59,280.12 -220.77,623.35 -17.32,2882.7 -90.5,3740.33l-13296.13 -9.15c-27.14,-1048.84 11.22,-2189.97 -0.6,-3258.69 -1.65,-149.21 -43.25,-297.91 -36.88,-422.65 -30.91,-34.91 -7.6,-3.36 -41.93,-60.01 -154.52,-254.97 -309.25,-536.34 -696.2,-629.87 -358.16,-109.28 -728.55,-38.38 -976.38,154.77z"/>
   <path class="fil0" d="M8481.76 49.14c-364.66,69.41 -1098.33,702.95 -1346.56,886.91l-2526.5 1902.44c-290.12,216.28 -1042.33,739.07 -1212.41,985.1 -230.83,506.18 43,943.05 556.06,1119.85 742.2,255.77 1228.33,-161.39 1528.43,-386.59 130.96,-98.28 2160.8,-1654.32 2253.61,-1682.97 -29.27,554.04 -3.34,1146.54 -3.31,1704.75l-0.02 4268.66c-0.09,329.19 -40.57,497.8 152.31,767.51 424.78,535.21 1319.36,508.82 1763.58,160.42 65.43,-51.31 21.52,-30.21 99.46,-72.52 24.49,-107.37 107.85,-121.55 166.77,-304.47 70.9,-220.11 35.69,-2769.38 33.41,-3042.91 -9.66,-1162.64 9.45,-2326.61 -1.09,-3489.37 117.11,41.39 1600.47,1183.87 1900.55,1412.54 124.23,94.66 505.85,405.98 611.77,449.97l29.54 30.83c4.1,4.06 10.01,10.35 14.55,14.69l58.7 50.51c43.23,30.42 64.92,36.29 134.35,67.19 294.04,116.39 578.75,174.62 950.93,74.98 239.74,-64.19 569.61,-257.47 612.42,-428.29 64.51,-54.21 74.66,-88.88 98.19,-169.17 33.63,-182 40.3,-305.51 -41.03,-476.5 -76.69,-161.23 -169.77,-233.03 -301.63,-325.73 -610.16,-428.92 -1569.17,-1190.08 -2200.97,-1663.14 -498.76,-373.44 -970.54,-734.16 -1469.21,-1107.55 -253.15,-189.55 -483.02,-363.01 -734.79,-553.74 -247.58,-187.56 -676.59,-318.21 -1127.12,-193.41z"/>
  </g>
 </g>
</svg>
